<svg xmlns="http://www.w3.org/2000/svg" viewBox="0 0 1200 988"><title>yellowSubmarine</title><defs><linearGradient x1="0%" y1="50%" x2="100%" y2="50%" id="prefix__a"><stop stop-color="#C6C8BF" offset="0%"/><stop stop-color="#B2B4AD" offset="100%"/></linearGradient><radialGradient cx="49.154%" cy="-13.463%" fx="49.154%" fy="-13.463%" r="129.053%" gradientTransform="matrix(.57107 0 0 1 .21 0)" id="prefix__b"><stop stop-color="#FFC965" offset="0%"/><stop stop-color="#FFC862" offset="31%"/><stop stop-color="#FFC55A" offset="49%"/><stop stop-color="#FFC04C" offset="64%"/><stop stop-color="#FFB838" offset="77%"/><stop stop-color="#FFAF1E" offset="89%"/><stop stop-color="#FFA400" offset="100%"/></radialGradient><radialGradient cx="100.798%" cy="-32.482%" fx="100.798%" fy="-32.482%" r="263.821%" gradientTransform="matrix(1 0 0 .26923 0 -.237)" id="prefix__c"><stop stop-color="#FFC965" offset="0%"/><stop stop-color="#FFC862" offset="31%"/><stop stop-color="#FFC55A" offset="49%"/><stop stop-color="#FFC04C" offset="64%"/><stop stop-color="#FFB838" offset="77%"/><stop stop-color="#FFAF1E" offset="89%"/><stop stop-color="#FFA400" offset="100%"/></radialGradient><radialGradient cx="-.779%" cy="-32.482%" fx="-.779%" fy="-32.482%" r="263.77%" gradientTransform="matrix(-1 0 0 -.26923 -.016 -.412)" id="prefix__d"><stop stop-color="#FFC965" offset="0%"/><stop stop-color="#FFC862" offset="31%"/><stop stop-color="#FFC55A" offset="49%"/><stop stop-color="#FFC04C" offset="64%"/><stop stop-color="#FFB838" offset="77%"/><stop stop-color="#FFAF1E" offset="89%"/><stop stop-color="#FFA400" offset="100%"/></radialGradient><linearGradient x1="-.001%" y1="50%" x2="100%" y2="50%" id="prefix__e"><stop stop-color="#C6C8BF" offset="0%"/><stop stop-color="#B2B4AD" offset="100%"/></linearGradient><radialGradient cx="3.836%" cy="-9.419%" fx="3.836%" fy="-9.419%" r="111.158%" gradientTransform="matrix(1 0 0 .99422 0 0)" id="prefix__f"><stop stop-color="#FFC965" offset="0%"/><stop stop-color="#FFC862" offset="31%"/><stop stop-color="#FFC55A" offset="49%"/><stop stop-color="#FFC04C" offset="64%"/><stop stop-color="#FFB838" offset="77%"/><stop stop-color="#FFAF1E" offset="89%"/><stop stop-color="#FFA400" offset="100%"/></radialGradient><linearGradient x1="49.989%" y1="19.273%" x2="49.989%" y2="101.034%" id="prefix__g"><stop stop-color="#A4DCD0" offset="0%"/><stop stop-color="#8AD2C3" offset="100%"/></linearGradient><linearGradient x1="49.953%" y1="19.302%" x2="49.953%" y2="101.116%" id="prefix__h"><stop stop-color="#C6C8BF" offset="0%"/><stop stop-color="#B2B4AD" offset="100%"/></linearGradient><linearGradient x1="50%" y1="19.28%" x2="50%" y2="101.022%" id="prefix__i"><stop stop-color="#A4DCD0" offset="0%"/><stop stop-color="#8AD2C3" offset="100%"/></linearGradient><linearGradient x1="50%" y1="-98.822%" x2="50%" y2="44.52%" id="prefix__j"><stop stop-color="#FFF" stop-opacity="0" offset="31%"/><stop stop-color="#FFF" stop-opacity="0.06" offset="37%"/><stop stop-color="#FFF" stop-opacity="0.2" offset="49%"/><stop stop-color="#FFF" stop-opacity="0.44" offset="66%"/><stop stop-color="#FFF" stop-opacity="0.77" offset="86%"/><stop stop-color="#FFF" offset="100%"/></linearGradient><linearGradient x1="0%" y1="50.02%" x2="100%" y2="50.02%" id="prefix__k"><stop stop-color="#A4DCD0" offset="0%"/><stop stop-color="#8AD2C3" offset="100%"/></linearGradient><linearGradient x1="31.986%" y1="54.338%" x2="69.644%" y2="45.039%" id="prefix__l"><stop stop-color="#A4DCD0" offset="0%"/><stop stop-color="#8AD2C3" offset="100%"/></linearGradient><linearGradient x1="146.774%" y1="51.279%" x2="108.978%" y2="41.97%" id="prefix__m"><stop stop-color="#A4DCD0" offset="0%"/><stop stop-color="#8AD2C3" offset="100%"/></linearGradient><linearGradient x1="50%" y1="89.981%" x2="50%" y2="-43.246%" id="prefix__n"><stop stop-color="#FFF" stop-opacity="0" offset="31%"/><stop stop-color="#FFF" stop-opacity="0.06" offset="37%"/><stop stop-color="#FFF" stop-opacity="0.2" offset="49%"/><stop stop-color="#FFF" stop-opacity="0.44" offset="66%"/><stop stop-color="#FFF" stop-opacity="0.77" offset="86%"/><stop stop-color="#FFF" offset="100%"/></linearGradient><radialGradient cx="-4.244%" cy="-11.409%" fx="-4.244%" fy="-11.409%" r="79.996%" gradientTransform="matrix(1 0 0 .87138 0 -.015)" id="prefix__o"><stop stop-color="#FFF" offset="0%"/><stop stop-color="#FFF" stop-opacity="0.77" offset="14%"/><stop stop-color="#FFF" stop-opacity="0.44" offset="34%"/><stop stop-color="#FFF" stop-opacity="0.2" offset="51%"/><stop stop-color="#FFF" stop-opacity="0.06" offset="63%"/><stop stop-color="#FFF" stop-opacity="0" offset="69%"/></radialGradient></defs><g transform="translate(59 159)" fill="none" fill-rule="evenodd"><path d="M233 515c0 21.072-17.387 38.153-38.835 38.153S155.33 536.072 155.33 515c0 21.072-17.387 38.153-38.835 38.153S77.66 536.072 77.66 515c.313 13.83-7.018 26.742-19.16 33.746-12.14 7.005-27.19 7.005-39.33 0C7.027 541.742-.304 528.83.01 515M1080.99 506c.313 13.83-7.018 26.742-19.16 33.746-12.14 7.005-27.19 7.005-39.33 0-12.142-7.004-19.473-19.917-19.16-33.746 0 21.072-17.387 38.153-38.835 38.153S925.67 527.072 925.67 506c0 21.072-17.387 38.153-38.835 38.153S848 527.072 848 506" stroke="#A4DCD0" stroke-width="4.79" stroke-linecap="round" stroke-linejoin="round"/><path d="M483 198.873V438h127.775V254.45c0-7.644 3.04-14.974 8.45-20.378a28.867 28.867 0 0 1 20.4-8.44H783V98H583.967a101.025 101.025 0 0 0-71.401 29.546A100.796 100.796 0 0 0 483 198.873z" fill="#FFA400"/><path fill="url(#prefix__a)" opacity="0.27" style="mix-blend-mode:multiply" d="M483 397h128v73H483z"/><path d="M720.353 419H369.647C248.92 419 151.042 517 151 637.915V869h788V637.915C938.958 516.999 841.079 419 720.353 419z" fill="url(#prefix__b)"/><path d="M939 638.578A217.32 217.32 0 0 0 893.37 505 217.477 217.477 0 0 0 841 646.86V869h98V638.578z" fill="url(#prefix__c)"/><path d="M151 638.578A217.365 217.365 0 0 1 196.66 505 217.502 217.502 0 0 1 249 646.86V869h-98V638.578z" fill="url(#prefix__d)"/><path d="M783 98h-77.213c-30.383 37.18-30.383 90.82 0 128H783V98z" fill="url(#prefix__e)" opacity="0.58" style="mix-blend-mode:multiply"/><path d="M870 162.48c.008 34.989-20.942 66.536-53.08 79.93-32.137 13.393-69.131 5.994-93.729-18.747s-31.954-61.95-18.639-94.275C717.868 97.064 749.234 75.992 784.02 76c47.481.01 85.97 38.723 85.98 86.48z" fill="url(#prefix__f)"/><path d="M848 162c0 35.346-28.654 64-64 64-35.346 0-64-28.654-64-64 0-35.346 28.654-64 64-64 35.346 0 64 28.654 64 64z" fill="#FFF"/><path d="M822 162.98A39 39 0 1 1 783.02 124c21.528 0 38.98 17.452 38.98 38.98z" fill="#71333F"/><path d="M797 134.682v-3.072c0-8.633 4.626-13.61 13.167-13.61h3.397c8.772 0 13.436 4.938 13.436 13.61v3.072c0 8.632-4.645 13.318-13.436 13.318h-3.32c-8.618-.097-13.244-4.783-13.244-13.318z" fill="#FFF"/><path d="M498 616.52c-.01 57.71-46.801 104.487-104.513 104.48-57.711-.007-104.49-46.795-104.487-104.506C289.004 558.782 335.789 512 393.5 512A104.5 104.5 0 0 1 498 616.52z" fill="#FFA400"/><path d="M477 616c0 46.392-37.608 84-84 84s-84-37.608-84-84 37.608-84 84-84 84 37.608 84 84z" fill="url(#prefix__g)"/><path d="M401.053 692.192c-33.164.007-63.243-19.323-76.824-49.371-13.581-30.048-8.134-65.216 13.913-89.821-23.295 20.642-33.176 52.392-25.67 82.488 7.505 30.096 31.163 53.596 61.466 61.054 30.303 7.459 62.274-2.349 83.062-25.48-15.4 13.633-35.317 21.155-55.947 21.13z" fill="url(#prefix__h)" opacity="0.38" style="mix-blend-mode:multiply"/><path d="M386 737.019a7 7 0 1 1 14-.038 7 7 0 0 1-14 .038zM386 496.981a7 7 0 1 1 7 7.019 6.981 6.981 0 0 1-7-7.019zM341.543 724.3a6.999 6.999 0 1 1 3.733 9.147 7 7 0 0 1-3.733-9.146zM433.544 503.3a6.999 6.999 0 1 1 3.742 9.152 7 7 0 0 1-3.742-9.152zM304.044 696.05a7.007 7.007 0 0 1 9.905 0 6.997 6.997 0 0 1 0 9.9 7.007 7.007 0 0 1-9.905 0 7.016 7.016 0 0 1 0-9.9zM474.064 526.05a6.987 6.987 0 0 1 9.888 0 7.006 7.006 0 0 1 0 9.9 6.987 6.987 0 0 1-9.888 0 6.966 6.966 0 0 1 0-9.9zM280.286 656.548a6.998 6.998 0 0 1 9.193 9.102 6.999 6.999 0 0 1-12.935.05 7 7 0 0 1 3.742-9.152zM501.265 564.555a7.003 7.003 0 0 1 7.652 1.464A6.998 6.998 0 0 1 504.016 578a7.002 7.002 0 0 1-6.485-4.317 7.018 7.018 0 0 1 3.734-9.128zM272.981 610a7 7 0 1 1 .038 14 7 7 0 0 1-.038-14zM513.019 610a7 7 0 1 1-7.019 7 6.981 6.981 0 0 1 7.019-7zM285.7 564.544a6.999 6.999 0 1 1-9.152 3.742 7 7 0 0 1 9.152-3.742zM506.683 656.542a6.996 6.996 0 0 1-.033 12.937 7.003 7.003 0 0 1-7.63-1.56 6.993 6.993 0 0 1-1.465-7.646 6.983 6.983 0 0 1 9.128-3.731zM313.947 526.047a7 7 0 1 1-9.894 9.906 7 7 0 0 1 9.894-9.906zM483.95 696.064a6.987 6.987 0 0 1 0 9.888 7.006 7.006 0 0 1-9.9 0 6.987 6.987 0 0 1 0-9.888 6.966 6.966 0 0 1 9.9 0zM354.452 503.282a7.003 7.003 0 0 1-1.478 7.642A6.998 6.998 0 0 1 341 506.025a7.002 7.002 0 0 1 4.3-6.487 7.018 7.018 0 0 1 9.152 3.744zM446.453 724.291a7 7 0 1 1-12.909 5.416 7 7 0 0 1 12.91-5.416z" fill="#FFA400"/><circle fill="#FFA400" cx="700.5" cy="616.5" r="104.5"/><circle fill="url(#prefix__i)" cx="701" cy="616" r="84"/><path d="M708.053 692.192c-33.164.007-63.243-19.323-76.824-49.371-13.581-30.048-8.134-65.216 13.913-89.821-23.295 20.642-33.176 52.392-25.67 82.488 7.505 30.096 31.163 53.596 61.466 61.054 30.303 7.459 62.274-2.349 83.062-25.48-15.4 13.631-35.317 21.154-55.947 21.13z" fill="url(#prefix__h)" opacity="0.38" style="mix-blend-mode:multiply"/><path d="M694 737.019a7 7 0 1 1 14-.038 7 7 0 0 1-14 .038zM694 497a7 7 0 1 1 14 0 7 7 0 0 1-14 0zM648.547 724.3a6.997 6.997 0 0 1 12.934.055 7.002 7.002 0 0 1-1.561 7.625 6.995 6.995 0 0 1-7.641 1.467 6.98 6.98 0 0 1-3.732-9.146zM739.533 503.3a7.005 7.005 0 0 1 12.945.05 6.996 6.996 0 0 1-1.555 7.624 7.008 7.008 0 0 1-7.645 1.478 7.036 7.036 0 0 1-3.745-9.152zM611.044 696.05a7.007 7.007 0 0 1 9.905 0 6.997 6.997 0 0 1 0 9.9 7.007 7.007 0 0 1-9.905 0 7.016 7.016 0 0 1 0-9.9zM781.064 526.05a6.987 6.987 0 0 1 9.888 0 7.006 7.006 0 0 1 0 9.9 6.987 6.987 0 0 1-9.888 0 6.966 6.966 0 0 1 0-9.9zM588.286 656.548a6.998 6.998 0 0 1 9.193 9.102 6.999 6.999 0 0 1-12.935.05 7 7 0 0 1 3.742-9.152zM809.273 564.555a6.993 6.993 0 0 1 7.646 1.464 7.003 7.003 0 0 1 1.56 7.631 6.996 6.996 0 0 1-12.937.033 6.983 6.983 0 0 1 3.731-9.128zM580.981 610a7 7 0 1 1-6.981 7 7.019 7.019 0 0 1 6.981-7zM821 610a7 7 0 1 1 0 14 7 7 0 0 1 0-14zM593.7 564.544a6.999 6.999 0 1 1-9.152 3.742 7 7 0 0 1 9.152-3.742zM814.683 656.542a6.996 6.996 0 0 1-.033 12.937 7.003 7.003 0 0 1-7.63-1.56 6.993 6.993 0 0 1-1.465-7.646 6.983 6.983 0 0 1 9.128-3.731zM620.947 526.047a7 7 0 1 1-9.894 9.906 7 7 0 0 1 9.894-9.906zM790.95 696.051a7 7 0 1 1-9.9 9.898 7 7 0 0 1 9.9-9.898zM661.452 503.286a6.998 6.998 0 0 1-9.102 9.193 6.999 6.999 0 0 1-.05-12.935 7 7 0 0 1 9.152 3.742zM752.452 724.29a6.995 6.995 0 0 1-1.478 7.635A7.002 7.002 0 0 1 739 727.03a6.997 6.997 0 0 1 4.3-6.483 6.984 6.984 0 0 1 9.152 3.742z" fill="#FFA400"/><path d="M1000.4 621.077a45.374 45.374 0 0 1-22.395 40.065 45.326 45.326 0 0 1-45.882 0 45.374 45.374 0 0 1-22.395-40.065 45.374 45.374 0 0 1-22.395 40.065 45.326 45.326 0 0 1-45.882 0 45.374 45.374 0 0 1-22.395-40.065c0 25.056-20.302 45.368-45.346 45.368-25.044 0-45.346-20.312-45.346-45.368a45.374 45.374 0 0 1-22.395 40.065 45.326 45.326 0 0 1-45.882 0 45.374 45.374 0 0 1-22.395-40.065c0 25.056-20.302 45.368-45.346 45.368-25.044 0-45.346-20.312-45.346-45.368a45.374 45.374 0 0 1-22.395 40.065 45.326 45.326 0 0 1-45.882 0 45.374 45.374 0 0 1-22.395-40.065 45.374 45.374 0 0 1-22.396 40.065 45.326 45.326 0 0 1-45.882 0 45.374 45.374 0 0 1-22.395-40.065c0 25.056-20.302 45.368-45.346 45.368-25.043 0-45.345-20.312-45.345-45.368a45.374 45.374 0 0 1-22.396 40.065 45.326 45.326 0 0 1-45.882 0 45.374 45.374 0 0 1-22.395-40.065c0 25.056-20.302 45.368-45.346 45.368-25.044 0-45.346-20.312-45.346-45.368a45.353 45.353 0 0 1-24.035 39.973A45.307 45.307 0 0 1 23 658.66V936h1048V658.66a45.307 45.307 0 0 1-46.613 2.387A45.353 45.353 0 0 1 1000.381 621l.02.077z" fill="url(#prefix__j)"/><path d="M48 666.075a45.433 45.433 0 0 0 32.042-13.204A44.93 44.93 0 0 0 93.305 621c0 24.894 20.293 45.075 45.324 45.075 25.032 0 45.325-20.181 45.325-45.075-.337 16.32 8.225 31.547 22.384 39.806a45.54 45.54 0 0 0 45.86 0c14.16-8.259 22.722-23.485 22.385-39.806 0 24.894 20.292 45.075 45.324 45.075 25.032 0 45.325-20.181 45.325-45.075-.337 16.32 8.225 31.547 22.384 39.806a45.54 45.54 0 0 0 45.86 0c14.16-8.259 22.722-23.485 22.385-39.806-.337 16.32 8.225 31.547 22.384 39.806a45.54 45.54 0 0 0 45.861 0c14.159-8.259 22.721-23.485 22.384-39.806 0 24.894 20.293 45.075 45.325 45.075 25.032 0 45.324-20.181 45.324-45.075-.337 16.32 8.225 31.547 22.384 39.806a45.54 45.54 0 0 0 45.86 0c14.16-8.259 22.722-23.485 22.385-39.806 0 24.894 20.293 45.075 45.325 45.075 25.032 0 45.324-20.181 45.324-45.075-.337 16.32 8.225 31.547 22.384 39.806a45.54 45.54 0 0 0 45.86 0c14.16-8.259 22.722-23.485 22.385-39.806-.337 16.32 8.226 31.547 22.385 39.806a45.54 45.54 0 0 0 45.86 0c14.16-8.259 22.722-23.485 22.385-39.806a44.949 44.949 0 0 0 13.275 31.873A45.452 45.452 0 0 0 1045 666.075" stroke="#FFF" stroke-width="4.79" stroke-linecap="round" stroke-linejoin="round"/><path d="M789 42.773c0 2.887-2.239 5.227-5 5.227a4.892 4.892 0 0 1-3.536-1.53A5.35 5.35 0 0 1 779 42.772V5.227a5.35 5.35 0 0 1 1.464-3.696A4.892 4.892 0 0 1 784 0c2.761 0 5 2.34 5 5.227v37.546z" fill="url(#prefix__k)"/><path d="M741.583 50.697c1.114 2.649-.08 5.718-2.671 6.867-2.597 1.152-5.618-.058-6.753-2.704l-14.727-34.527a5.313 5.313 0 0 1-.078-4.006 5.173 5.173 0 0 1 2.73-2.88 5.006 5.006 0 0 1 3.93-.087 5.144 5.144 0 0 1 2.822 2.791l14.747 34.546z" fill="url(#prefix__l)"/><path d="M826.42 50.696c-1.116 2.644.068 5.71 2.653 6.867 2.602 1.153 5.629-.056 6.771-2.704l14.729-34.528c1.13-2.648-.058-5.73-2.652-6.886a5.007 5.007 0 0 0-3.957-.073 5.147 5.147 0 0 0-2.815 2.835l-14.729 34.49z" fill="url(#prefix__m)"/><path d="M864 490c-38.222-38.444-90.082-60.03-144.15-60h-350.7c-54.068-.03-105.928 21.556-144.15 60h639z" fill="url(#prefix__n)"/><path d="M498 424V199.415c.063-47.707 38.768-86.363 86.525-86.415H769v98.84H640.129c-23.843 0-43.183 19.285-43.225 43.102V424H498z" fill="url(#prefix__o)"/></g></svg>