<svg xmlns="http://www.w3.org/2000/svg" width="259" height="306"><g><title>background</title><rect id="canvas_background" width="261" height="308" x="-1" y="-1" fill="none"/><g id="canvasGrid" width="100%" height="100%" x="0" y="0" display="none"><rect width="640" height="480" x="1" y="1" fill="url(#gridpattern)" stroke-width="0"/></g></g><g><title>Layer 1</title><g id="svg_3"><g id="svg_4" fill="none" fill-rule="evenodd" stroke="null" transform="matrix(1.9290121985070527,0,0,1.9290121985070527,0,0)"><path id="svg_5" stroke="#AEB9C6" stroke-linecap="round" stroke-linejoin="round" stroke-width="6" d="m67.699202,52.739198c-7.178,0 -13,-5.821 -13,-12.998c0,-7.18 5.82,-13.002 12.999,-13.002c7.179,0 13.001,5.819 13.001,12.999c0,7.178 -5.82,13 -13,13.001z"/><path id="svg_6" fill="#AEB9C6" stroke="null" d="m96.699202,28.722198a4,4 0 1 1 -8,0a4,4 0 0 1 8,0"/><path id="svg_7" stroke="#AEB9C6" stroke-linecap="round" stroke-linejoin="round" stroke-width="6" d="m32.699202,60.739198l0,-44l70,0l0,44l-70,0zm10,-48.016l6,0l-6,0zm0,12.016l8,0l-8,0zm32,-8l0,-10l22,0l0,10l-22,0z"/></g></g></g></svg>