<svg width="96" height="96" xmlns="http://www.w3.org/2000/svg"><g fill="none" fill-rule="evenodd"><path d="M48 67c-7.178 0-13-5.821-13-12.998C35 46.822 40.82 41 47.999 41 55.178 41 61 46.819 61 53.999c0 7.178-5.82 13-13 13.001z" stroke="#AEB9C6" stroke-width="6" stroke-linecap="round" stroke-linejoin="round"/><path d="M77 42.983a4 4 0 1 1-8 0 4 4 0 0 1 8 0" fill="#AEB9C6"/><path stroke="#AEB9C6" stroke-width="6" stroke-linecap="round" stroke-linejoin="round" d="M13 75V31h70v44zM23 26.984h6-6zM23 39h8-8zM55 31V21h22v10z"/></g></svg>